Coordinates
version=1
nRows=34
nColumns=38
inDegrees=no

Units are S.I. units (second, meters, Newtons, ...)
If the header above contains a line with 'inDegrees', this indicates whether rotational values are in degrees (yes) or radians (no).

endheader
time	pelvis_tilt	pelvis_list	pelvis_rotation	pelvis_tx	pelvis_ty	pelvis_tz	hip_flexion_r	hip_adduction_r	hip_rotation_r	knee_angle_r	ankle_angle_r	subtalar_angle_r	mtp_angle_r	hip_flexion_l	hip_adduction_l	hip_rotation_l	knee_angle_l	ankle_angle_l	subtalar_angle_l	mtp_angle_l	lumbar_extension	lumbar_bending	lumbar_rotation	arm_flex_r	arm_add_r	arm_rot_r	elbow_flex_r	pro_sup_r	wrist_flex_r	wrist_dev_r	arm_flex_l	arm_add_l	arm_rot_l	elbow_flex_l	pro_sup_l	wrist_flex_l	wrist_dev_l
1.25	2.96083	1.46548	-1.39638	0.688253	-0.115707	1.03654	0.28771	0.0252118	0.0146486	1.04238	-0.215795	0	0	-0.0448227	0.00520364	-0.383463	0.353602	-0.25938	0	0	-0.17855	0.133648	0.132872	-0.0226427	-0.63567	0.103351	1.63587	0.39812	0	0	0.268262	-0.497481	0.273697	1.20515	0.761272	0	0
1.26	2.93774	1.4655	-1.3717	0.68818	-0.106941	1.03676	0.302303	0.0262831	0.00900532	1.0175	-0.209181	0	0	-0.0547049	0.00277729	-0.382963	0.350997	-0.256139	0	0	-0.177972	0.136488	0.130989	-0.0230136	-0.634404	0.101939	1.63661	0.39942	0	0	0.268459	-0.497705	0.273027	1.20564	0.761916	0	0
1.27	2.91448	1.46628	-1.34711	0.688172	-0.098183	1.03681	0.316912	0.0266902	0.00272427	0.991408	-0.20262	0	0	-0.0632122	0.000235664	-0.383872	0.34922	-0.252649	0	0	-0.176633	0.139176	0.129164	-0.0231196	-0.632991	0.100733	1.63717	0.401129	0	0	0.268261	-0.497933	0.27205	1.20625	0.762541	0	0
1.28	2.89249	1.46791	-1.32384	0.688162	-0.0894953	1.03668	0.331778	0.0261404	-0.00448758	0.964023	-0.197019	0	0	-0.07021	-0.00188866	-0.384966	0.348179	-0.249021	0	0	-0.174585	0.141485	0.127339	-0.0230292	-0.631704	0.0996777	1.63757	0.403162	0	0	0.267986	-0.498179	0.271013	1.20697	0.763614	0	0
1.29	2.87093	1.46992	-1.30125	0.688224	-0.0808144	1.03642	0.346494	0.025126	-0.0127518	0.935479	-0.193057	0	0	-0.0765744	-0.00398911	-0.385674	0.348559	-0.244815	0	0	-0.172201	0.143516	0.12586	-0.0228537	-0.630528	0.0988199	1.63789	0.40561	0	0	0.26785	-0.498412	0.269767	1.20776	0.764623	0	0
1.3	2.84822	1.47203	-1.27772	0.688321	-0.0721137	1.03603	0.360659	0.0240684	-0.022436	0.905391	-0.191084	0	0	-0.0824722	-0.00617612	-0.386415	0.350069	-0.239866	0	0	-0.169649	0.145563	0.124716	-0.0226495	-0.62965	0.0980165	1.63823	0.40842	0	0	0.267764	-0.498715	0.268785	1.20865	0.766415	0	0
1.31	2.8225	1.47417	-1.25113	0.688416	-0.0634037	1.03551	0.374089	0.0233302	-0.0333665	0.873397	-0.191118	0	0	-0.0877251	-0.00849486	-0.387389	0.35192	-0.234547	0	0	-0.166987	0.147886	0.123774	-0.0225893	-0.629192	0.0970969	1.63879	0.411236	0	0	0.267756	-0.49884	0.267966	1.20969	0.768755	0	0
1.32	2.79509	1.4761	-1.22258	0.688512	-0.0546582	1.0349	0.386413	0.0230248	-0.0456846	0.839656	-0.192394	0	0	-0.0929631	-0.0109435	-0.387777	0.354066	-0.22911	0	0	-0.164371	0.150464	0.122759	-0.0227131	-0.628823	0.096004	1.63939	0.413637	0	0	0.267765	-0.498871	0.267431	1.21081	0.770756	0	0
1.33	2.76624	1.47815	-1.19228	0.688597	-0.0458734	1.03421	0.397795	0.0230613	-0.0588676	0.803847	-0.194823	0	0	-0.0978732	-0.0134121	-0.387098	0.356684	-0.222712	0	0	-0.161466	0.153141	0.121461	-0.0229593	-0.628372	0.0947528	1.6398	0.416438	0	0	0.267561	-0.498869	0.266851	1.21202	0.772165	0	0
1.34	2.73986	1.48023	-1.16476	0.688748	-0.0370467	1.03344	0.408399	0.0232041	-0.0715653	0.767159	-0.19681	0	0	-0.102757	-0.0155973	-0.386568	0.359748	-0.216756	0	0	-0.15862	0.155315	0.120597	-0.0232545	-0.628063	0.0935877	1.64004	0.418879	0	0	0.267313	-0.498676	0.26581	1.21343	0.773016	0	0
1.35	2.71336	1.48231	-1.13712	0.688937	-0.0281371	1.03256	0.417956	0.0234322	-0.0843801	0.729364	-0.198281	0	0	-0.107574	-0.0178781	-0.386209	0.363353	-0.210694	0	0	-0.155565	0.157345	0.119875	-0.0237148	-0.628003	0.0924395	1.64023	0.421074	0	0	0.267066	-0.498389	0.264708	1.21488	0.774194	0	0
1.36	2.68789	1.48434	-1.11031	0.689163	-0.0191367	1.0316	0.425979	0.0237641	-0.0975855	0.690962	-0.19894	0	0	-0.112772	-0.0200435	-0.385387	0.366645	-0.204519	0	0	-0.15235	0.159167	0.119021	-0.0243045	-0.627977	0.0913773	1.6403	0.42317	0	0	0.266784	-0.498293	0.264265	1.21626	0.775917	0	0
1.37	2.66324	1.48655	-1.08426	0.68942	-0.0100365	1.03055	0.432962	0.0240049	-0.110557	0.652118	-0.199203	0	0	-0.118206	-0.021889	-0.384083	0.369184	-0.198569	0	0	-0.148746	0.160731	0.118203	-0.0252016	-0.627957	0.0903488	1.6402	0.425237	0	0	0.266321	-0.49802	0.26394	1.21753	0.77695	0	0
1.38	2.63983	1.48896	-1.05932	0.689709	-0.000849823	1.02943	0.438872	0.0240898	-0.122988	0.612643	-0.199266	0	0	-0.123847	-0.0234035	-0.382225	0.370954	-0.193086	0	0	-0.144823	0.161985	0.117373	-0.0262145	-0.628003	0.0896043	1.63991	0.427222	0	0	0.26589	-0.497681	0.26393	1.21858	0.777534	0	0
1.39	2.61807	1.49141	-1.0355	0.690002	0.00842846	1.02824	0.443656	0.024002	-0.136179	0.573093	-0.199671	0	0	-0.129656	-0.024793	-0.380013	0.372452	-0.187912	0	0	-0.140656	0.163025	0.116224	-0.0274029	-0.628095	0.0890598	1.6394	0.42907	0	0	0.265733	-0.497141	0.264149	1.21916	0.77819	0	0
1.4	2.59473	1.49421	-1.00972	0.690288	0.0177742	1.02692	0.447725	0.0240579	-0.14935	0.533692	-0.201061	0	0	-0.135219	-0.0259771	-0.377547	0.373808	-0.18273	0	0	-0.135949	0.163926	0.114893	-0.0287844	-0.628555	0.0884788	1.63864	0.43074	0	0	0.265804	-0.496143	0.264171	1.21914	0.778883	0	0
1.41	2.56809	1.49719	-0.980621	0.690615	0.027218	1.0255	0.451226	0.0246548	-0.161573	0.495173	-0.202344	0	0	-0.140755	-0.0270967	-0.375367	0.37501	-0.177472	0	0	-0.130844	0.164747	0.113749	-0.0305433	-0.629213	0.0874171	1.63773	0.432056	0	0	0.265965	-0.495073	0.264514	1.21882	0.780621	0	0
1.42	2.54058	1.49992	-0.950399	0.690994	0.0367568	1.02398	0.453968	0.0256568	-0.172684	0.458826	-0.203002	0	0	-0.146732	-0.0283479	-0.373332	0.376199	-0.171984	0	0	-0.125854	0.165586	0.11256	-0.0325007	-0.629757	0.0859916	1.63678	0.433113	0	0	0.266371	-0.494273	0.265628	1.21839	0.783989	0	0
1.43	2.51388	1.5022	-0.920534	0.691428	0.046406	1.02245	0.455983	0.0269416	-0.182539	0.425852	-0.202982	0	0	-0.153374	-0.0298346	-0.371253	0.377239	-0.166464	0	0	-0.121191	0.166645	0.111081	-0.0344638	-0.630011	0.0847673	1.63595	0.434127	0	0	0.266856	-0.493186	0.266974	1.21759	0.786895	0	0
1.44	2.48844	1.50415	-0.891681	0.691907	0.056163	1.02087	0.457607	0.0282494	-0.189768	0.397786	-0.202575	0	0	-0.160658	-0.0314956	-0.369132	0.377925	-0.161388	0	0	-0.116847	0.167886	0.109406	-0.0364143	-0.630255	0.083452	1.63509	0.435496	0	0	0.26714	-0.491698	0.267927	1.21655	0.788519	0	0
1.45	2.46646	1.50584	-0.866186	0.692436	0.0659888	1.01925	0.45934	0.0292804	-0.193755	0.376759	-0.201677	0	0	-0.168425	-0.0332226	-0.367323	0.37855	-0.15703	0	0	-0.113071	0.169077	0.107625	-0.0381203	-0.630373	0.0820749	1.63418	0.436742	0	0	0.267088	-0.489819	0.267808	1.21565	0.789625	0	0
1.46	2.44879	1.50716	-0.844775	0.692964	0.0758748	1.01759	0.460648	0.0300178	-0.194333	0.361972	-0.200501	0	0	-0.176688	-0.0350251	-0.365599	0.379371	-0.152672	0	0	-0.109948	0.170401	0.105568	-0.0393619	-0.630717	0.0810345	1.63314	0.438003	0	0	0.266838	-0.487535	0.267111	1.21446	0.790503	0	0
1.47	2.43853	1.50834	-0.830627	0.693461	0.0858461	1.0159	0.461895	0.0301494	-0.192233	0.354703	-0.198649	0	0	-0.185383	-0.0366173	-0.364537	0.380624	-0.148129	0	0	-0.107382	0.171553	0.103259	-0.0400648	-0.631769	0.0808357	1.6321	0.439359	0	0	0.266427	-0.485296	0.266385	1.21324	0.791242	0	0
1.48	2.43796	1.50959	-0.825992	0.693912	0.095864	1.01418	0.463379	0.0294392	-0.18827	0.355394	-0.196021	0	0	-0.194396	-0.0376813	-0.363976	0.382149	-0.142931	0	0	-0.105339	0.172322	0.100524	-0.0398894	-0.633656	0.0818865	1.63088	0.440747	0	0	0.26585	-0.483258	0.265571	1.21229	0.791298	0	0
1.49	2.44919	1.51112	-0.832839	0.694318	0.105914	1.01242	0.466006	0.0273022	-0.184404	0.36553	-0.194283	0	0	-0.20334	-0.0381107	-0.363879	0.384455	-0.138524	0	0	-0.103781	0.172449	0.097269	-0.0389018	-0.636323	0.0840784	1.62965	0.44151	0	0	0.265324	-0.481958	0.265461	1.21189	0.791388	0	0
1.5	2.4729	1.51277	-0.851663	0.694637	0.116032	1.0106	0.469385	0.0236813	-0.181193	0.384236	-0.193481	0	0	-0.212134	-0.0380024	-0.363907	0.38774	-0.1342	0	0	-0.102681	0.172223	0.0933355	-0.0372881	-0.639879	0.0873736	1.62869	0.441357	0	0	0.264713	-0.481191	0.265863	1.21184	0.79154	0	0
1.51	2.50401	1.51402	-0.877612	0.694957	0.126298	1.00874	0.472156	0.0197265	-0.177426	0.408628	-0.193908	0	0	-0.220825	-0.0383113	-0.364807	0.392436	-0.130533	0	0	-0.102219	0.172117	0.0895151	-0.0362203	-0.644222	0.0904613	1.62851	0.439777	0	0	0.264364	-0.480735	0.267108	1.21206	0.791177	0	0
1.52	2.54368	1.51463	-0.911587	0.695257	0.1367	1.00688	0.473546	0.0156751	-0.173129	0.437378	-0.194232	0	0	-0.229445	-0.0392675	-0.365853	0.398752	-0.127193	0	0	-0.102597	0.172256	0.0857188	-0.0358608	-0.649276	0.0928944	1.62912	0.437091	0	0	0.264547	-0.480381	0.269219	1.21233	0.790684	0	0
1.53	2.5879	1.51444	-0.949412	0.695553	0.147273	1.00506	0.472296	0.0122368	-0.168813	0.467897	-0.193492	0	0	-0.238007	-0.0413137	-0.366501	0.407898	-0.123672	0	0	-0.103661	0.172903	0.0817399	-0.0362563	-0.654611	0.0944351	1.63028	0.433733	0	0	0.265059	-0.480026	0.27203	1.21261	0.789753	0	0
1.54	2.63241	1.5134	-0.986573	0.695848	0.158048	1.0033	0.467709	0.00933505	-0.167037	0.498452	-0.191912	0	0	-0.246312	-0.0447839	-0.365805	0.420129	-0.120072	0	0	-0.105236	0.174256	0.077317	-0.0375341	-0.659714	0.0950426	1.632	0.430051	0	0	0.265701	-0.479566	0.275409	1.21284	0.788644	0	0
1.55	2.67002	1.51141	-1.01587	0.69615	0.169003	1.00165	0.459859	0.00718878	-0.168272	0.525349	-0.191055	0	0	-0.253608	-0.0498355	-0.363474	0.435108	-0.11674	0	0	-0.107289	0.176626	0.0723935	-0.0394192	-0.664585	0.0949791	1.63404	0.426215	0	0	0.26628	-0.478924	0.278853	1.21308	0.786784	0	0
1.56	2.68044	1.50934	-1.01838	0.696549	0.180005	1.00016	0.453533	0.00518865	-0.173458	0.545966	-0.192705	0	0	-0.258422	-0.0567008	-0.35935	0.453304	-0.113859	0	0	-0.108822	0.180879	0.0680497	-0.041168	-0.669723	0.0950584	1.63571	0.42231	0	0	0.26635	-0.477494	0.281679	1.21276	0.785037	0	0
1.57	2.65788	1.50749	-0.989328	0.697001	0.190844	0.99897	0.452146	0.00193964	-0.180748	0.559201	-0.199871	0	0	-0.259704	-0.0652837	-0.353453	0.475928	-0.111654	0	0	-0.110065	0.187621	0.0650871	-0.0419505	-0.675571	0.095617	1.63658	0.418386	0	0	0.265389	-0.474578	0.282983	1.21209	0.78371	0	0
1.58	2.61782	1.50475	-0.944481	0.697648	0.20149	0.998263	0.451713	0.000974667	-0.18866	0.567986	-0.217707	0	0	-0.258484	-0.0757315	-0.34688	0.503727	-0.110861	0	0	-0.112918	0.196168	0.0636917	-0.0413277	-0.681536	0.0967717	1.63655	0.414463	0	0	0.263431	-0.470971	0.282515	1.21234	0.781992	0	0
